<?xml version="1.0" encoding="utf-8"?>
<!-- Generator: Adobe Illustrator 15.0.0, SVG Export Plug-In . SVG Version: 6.00 Build 0)  -->
<!DOCTYPE svg PUBLIC "-//W3C//DTD SVG 1.1//EN" "http://www.w3.org/Graphics/SVG/1.1/DTD/svg11.dtd">
<svg version="1.1" id="Layer_1" xmlns="http://www.w3.org/2000/svg" xmlns:xlink="http://www.w3.org/1999/xlink" x="0px" y="0px"
	 width="341px" height="189.333px" viewBox="0 -5.207 341 189.333" enable-background="new 0 -5.207 341 189.333"
	 xml:space="preserve">
<g>
	<path d="M137.006,41.222c-2.803-2.417-6.279-3.626-10.43-3.626c-4.514,0-8.017,1.281-10.501,3.842
		c-2.483,2.566-4.048,6.032-4.685,10.414h30.301C141.374,47.181,139.809,43.638,137.006,41.222z"/>
	<path d="M250.964,130.668c-2.248-1.938-5.036-2.912-8.371-2.912c-3.622,0-6.434,1.029-8.428,3.086
		c-1.992,2.06-3.248,4.841-3.76,8.355h24.318C254.471,135.454,253.216,132.609,250.964,130.668z"/>
	<path d="M179.048,156.883c2.082-2.975,3.123-6.819,3.123-11.539c0-6.605-1.67-11.329-5.004-14.17
		c-2.047-1.715-4.426-2.573-7.131-2.573c-4.131,0-7.156,1.562-9.086,4.681c-1.935,3.12-2.904,6.991-2.904,11.616
		c0,4.985,0.984,8.974,2.953,11.961c1.961,2.988,4.942,4.481,8.938,4.481C173.932,161.34,176.971,159.855,179.048,156.883z"/>
	<path d="M286.419,62.342l-4,0.741c-3.752,0.657-6.448,1.46-8.084,2.407c-2.771,1.604-4.155,4.094-4.155,7.467
		c0,3.002,0.846,5.174,2.543,6.509c1.687,1.339,3.741,2.006,6.17,2.006c3.842,0,7.379-1.111,10.619-3.331
		c3.239-2.221,4.915-6.275,5.045-12.159v-6.54c-1.125,0.699-2.263,1.264-3.408,1.697C290.001,61.571,288.428,61.972,286.419,62.342z
		"/>
	<path d="M205.488,41.854c-2.551-2.14-5.514-3.209-8.887-3.209c-5.143,0-8.918,1.944-11.324,5.832s-3.609,8.711-3.609,14.471
		c0,6.212,1.224,11.182,3.672,14.904c2.447,3.723,6.16,5.585,11.14,5.585s8.765-1.851,11.354-5.554
		c2.594-3.703,3.889-8.497,3.889-14.379C211.721,51.276,209.643,45.393,205.488,41.854z"/>
	<path d="M320.333-7.333h-0.291H-0.333V-0.5l0,0V174l0,0v12.479h320.375h0.291h23.375V-7.333H320.333z M290.804,173.191
		c-6.359-0.521-11.233-2.237-14.573-5.188c-4.051-3.582-6.078-8.147-6.078-13.694h14.315c0.298,2.51,0.945,4.291,1.939,5.351
		c1.76,1.883,5.014,2.821,9.76,2.821c2.785,0,4.996-0.412,6.641-1.235c1.643-0.826,2.465-2.064,2.465-3.716
		c0-1.586-0.66-2.79-1.986-3.618c-1.32-0.822-6.244-2.242-14.768-4.259c-6.135-1.519-10.457-3.416-12.965-5.694
		c-2.512-2.248-3.768-5.482-3.768-9.709c0-4.986,1.963-9.273,5.885-12.854c3.92-3.582,9.438-5.375,16.557-5.375
		c6.746,0,12.25,1.347,16.502,4.037c4.25,2.69,6.695,7.34,7.322,13.944h-14.117c-0.199-1.817-0.709-3.254-1.539-4.311
		c-1.557-1.918-4.207-2.873-7.947-2.873c-3.078,0-5.273,0.479-6.584,1.438c-1.307,0.957-1.961,2.078-1.961,3.365
		c0,1.621,0.695,2.793,2.092,3.521c1.385,0.76,6.299,2.062,14.734,3.911c5.627,1.318,9.84,3.318,12.648,5.992
		c2.773,2.709,4.16,6.095,4.16,10.154c0,5.35-1.994,9.719-5.982,13.102c-3.262,2.771-8.006,4.388-14.18,4.892H290.804
		L290.804,173.191z M239.751,173.191c-5.818-0.591-11.047-2.729-15.67-6.455c-5.494-4.428-8.238-11.637-8.238-21.614
		c0-9.354,2.48-16.525,7.439-21.515c4.955-4.991,11.389-7.487,19.305-7.487c4.701,0,8.933,0.842,12.695,2.528
		c3.77,1.688,6.877,4.353,9.334,7.987c2.207,3.207,3.646,6.927,4.299,11.162c0.381,2.48,0.533,6.05,0.463,10.713h-39.319
		c0.221,5.418,2.104,9.216,5.646,11.394c2.156,1.354,4.752,2.033,7.785,2.033c3.217,0,5.828-0.828,7.836-2.479
		c1.098-0.891,2.068-2.129,2.904-3.715h14.414c-0.379,3.203-2.127,6.457-5.232,9.758c-4.107,4.459-9.609,7.017-16.502,7.689
		L239.751,173.191L239.751,173.191z M164.587,173.191c-5.742-0.327-10.623-2.862-14.634-7.612
		c-4.312-5.103-6.466-11.648-6.466-19.642c0-9.213,2.121-16.461,6.366-21.744c4.243-5.284,9.915-7.926,17.012-7.926
		c3.27,0,6.174,0.717,8.717,2.153c2.545,1.438,4.607,3.427,6.193,5.97V98.631h14.312v72.912h-13.719v-7.479
		c-2.015,3.205-4.312,5.531-6.886,6.984c-2.237,1.263-4.95,1.975-8.137,2.141L164.587,173.191L164.587,173.191z M27.089,173.191
		c-7.276-0.642-13.195-2.716-17.71-6.274c-5.505-4.342-8.26-10.312-8.26-17.908h14.563c0.47,3.336,1.398,5.828,2.781,7.479
		c2.525,3.005,6.859,4.509,12.998,4.509c3.674,0,6.658-0.396,8.949-1.189c4.351-1.52,6.526-4.342,6.526-8.471
		c0-2.41-1.065-4.275-3.195-5.596c-2.134-1.287-5.511-2.431-10.138-3.418l-7.904-1.734c-7.77-1.717-13.106-3.582-16.012-5.598
		c-4.92-3.369-7.381-8.636-7.381-15.802c0-6.537,2.406-11.97,7.22-16.297c4.813-4.324,11.884-6.488,21.212-6.488
		c7.79,0,14.432,2.041,19.93,6.119c4.962,3.677,7.785,8.856,8.489,15.528h7.031v-15.061h13.968v15.061h8.769v10.056h-8.769v28.528
		c0,2.214,0.281,3.593,0.843,4.138c0.561,0.545,2.278,0.815,5.151,0.815c0.429,0,0.883-0.008,1.361-0.024
		c0.479-0.019,0.951-0.039,1.413-0.071v10.549l-6.688,0.246c-6.67,0.233-11.227-0.922-13.67-3.466
		c-1.586-1.618-2.378-4.11-2.378-7.479v-33.234H58.66v-7.828H44.658c-0.272-4.393-2.233-7.512-5.89-9.361
		c-2.439-1.223-5.469-1.834-9.09-1.834c-4.029,0-7.244,0.795-9.65,2.379c-2.402,1.584-3.604,3.799-3.604,6.64
		c0,2.606,1.185,4.558,3.555,5.844c1.522,0.859,4.754,1.865,9.699,3.021l12.813,3.021c5.618,1.322,9.823,3.086,12.626,5.301
		c4.354,3.433,6.53,8.404,6.53,14.908c0,6.67-2.58,12.211-7.736,16.619c-4.234,3.62-9.93,5.729-17.035,6.375L27.089,173.191
		L27.089,173.191z M291.707,38.984c-1.938-1.048-4.781-1.574-8.535-1.574c-4.211,0-7.194,1.029-8.94,3.086
		c-1.256,1.522-2.09,3.58-2.506,6.172h-16.972c0.369-5.883,2.025-10.718,4.957-14.502c4.67-5.925,12.687-8.887,24.047-8.887
		c7.396,0,13.97,1.46,19.714,4.381c5.741,2.921,8.612,8.434,8.612,16.539v30.856c0,2.139,0.039,4.73,0.123,7.775
		c0.123,2.305,0.473,3.869,1.049,4.689c0.576,0.821,1.439,1.504,2.592,2.039v2.59h-19.129c-0.534-1.356-0.905-2.633-1.11-3.823
		c-0.207-1.194-0.368-2.552-0.493-4.075c-2.443,2.633-5.257,4.877-8.445,6.727c-3.805,2.18-8.109,3.271-12.906,3.271
		c-6.127,0-11.186-1.738-15.178-5.217c-3.994-3.476-5.99-8.403-5.99-14.78c0-8.27,3.213-14.254,9.637-17.957
		c3.523-2.017,8.701-3.456,15.541-4.321l6.033-0.74c3.27-0.412,5.609-0.925,7.025-1.543c2.524-1.07,3.789-2.736,3.789-4.999
		C294.619,41.937,293.648,40.034,291.707,38.984z M232.292,16.86V0.63h17.834v16.23H232.292z M250.126,24.884v67.264h-17.834V24.884
		H250.126z M199.117,111.118V98.088h14.314v13.027h-14.314V111.118z M213.432,117.556v53.987h-14.313v-53.987H213.432z
		 M211.968,92.148V82.83c-2.512,3.992-5.37,6.891-8.577,8.702c-3.209,1.811-7.199,2.717-11.974,2.717
		c-7.856,0-14.473-3.181-19.84-9.536c-5.369-6.356-8.053-14.513-8.053-24.468c0-11.478,2.643-20.509,7.928-27.092
		c5.287-6.583,12.354-9.874,21.199-9.874c4.072,0,7.693,0.895,10.861,2.684c3.168,1.79,5.738,4.269,7.715,7.437V1.309h17.832v90.839
		H211.968z M117.995,77.647c2.684,1.687,5.918,2.531,9.699,2.531c4.006,0,7.261-1.029,9.76-3.085
		c1.367-1.111,2.577-2.655,3.621-4.629h17.958c-0.475,3.99-2.648,8.042-6.52,12.157c-6.028,6.542-14.463,9.811-25.309,9.811
		c-8.954,0-16.847-2.756-23.692-8.273c-6.846-5.519-10.266-14.495-10.266-26.932c0-11.653,3.092-20.585,9.268-26.803
		c6.177-6.218,14.194-9.33,24.053-9.33c5.857,0,11.129,1.05,15.819,3.153c4.695,2.104,8.569,5.42,11.628,9.951
		c2.751,3.997,4.539,8.63,5.359,13.906c0.473,3.09,0.664,7.539,0.577,13.35h-48.99C111.232,70.2,113.577,74.932,117.995,77.647z
		 M125.527,165.404c-0.528,0.824-1.151,1.552-1.878,2.181c-2.204,1.979-4.34,3.334-6.398,4.061
		c-2.056,0.727-4.471,1.092-7.235,1.092c-7.968,0-13.338-2.873-16.103-8.621c-1.548-3.17-2.32-7.842-2.32-14.018v-32.541h14.465
		v32.541c0,3.072,0.362,5.385,1.085,6.938c1.278,2.74,3.794,4.109,7.541,4.109c4.797,0,8.083-1.947,9.856-5.846
		c0.916-2.113,1.379-4.904,1.379-8.371v-29.371h14.315v53.988h-13.721v-7.627C126.381,164.083,126.051,164.579,125.527,165.404z
		 M55.559,92.148H37.086L19.973,15.811c0,1.728,0.02,4.186,0.061,7.375c0.042,3.189,0.062,5.667,0.062,7.437v61.525H2.384V1.186
		h27.657L46.602,72.71L63.038,1.186h27.348v90.962H72.674V30.623c0-1.77,0.021-4.248,0.062-7.437
		c0.042-3.188,0.062-5.646,0.062-7.375L55.559,92.148z"/>
</g>
</svg>
